<svg id="Vrstva_1" data-name="Vrstva 1" xmlns="http://www.w3.org/2000/svg" viewBox="0 0 1282.38 1171.96"><defs><style>.cls-1{font-size:154.72px;fill:#dca458;}.cls-1,.cls-11{font-family:MyriadPro-Bold, Myriad Pro;font-weight:700;}.cls-2,.cls-3{fill:#dea559;}.cls-3{fill-rule:evenodd;}.cls-4,.cls-8{fill:#fd0;}.cls-4,.cls-5{opacity:0.8;}.cls-5{fill:#008bd2;}.cls-6{fill:#132f55;}.cls-7{fill:#dda45a;}.cls-9{fill:none;}.cls-10{fill:#fff;}.cls-11{font-size:60px;fill:#1a3054;}</style></defs><g id="Logo_100_-_kulate" data-name="Logo 100 - kulate"><g id="Kulate"><text class="cls-1" transform="translate(454.9 -107.84) rotate(15.17)">2</text><text class="cls-1" transform="translate(547.01 -83.69) rotate(5.09)">0</text><text class="cls-1" transform="translate(642.07 -76.07) rotate(-5.16)">2</text><text class="cls-1" transform="matrix(0.96, -0.27, 0.27, 0.96, 736.98, -85.5)">2</text></g></g><g id="Logo_100_-_hrana" data-name="Logo 100 - hrana"><path class="cls-2" d="M519.82,1090.14v-12l10.92-9.88c10-9.08,27.11-21.47,27.69-35.88.27-6.6-4.16-12.35-13.91-12.35-7.28,0-13.65,3.65-18.07,7-2.24-5.66-3.36-8.5-5.59-14.17,7.94-5.85,17.95-8.63,27.69-8.71,15.75-.12,29.52,10,29.64,26.53.1,14.63-12.29,27.38-22.49,36.39l-7.8,6.51v.26h31.85v16.25Z"/><path class="cls-2" d="M610.57,1048c0,7.9,1.2,29,12.22,28.6s11.83-20.41,11.83-28.87-1.45-28.71-12-28.6-12.09,20.21-12.09,28.87Zm43.81-.53c0,20-9,43.42-32.11,44.08-22.93.65-31.55-24.86-31.59-43.55,0-19.06,9.1-44.46,32.24-43.81,22.65.63,31.43,23.79,31.46,43.28Z"/><path class="cls-2" d="M664.13,1090.14v-12l10.93-9.88c10-9.08,27.1-21.47,27.69-35.88.26-6.6-4.16-12.35-13.92-12.35-7.28,0-13.65,3.65-18.07,7l-5.59-14.17c8-5.85,18-8.63,27.7-8.71,15.74-.12,29.52,10,29.64,26.53.1,14.63-12.29,27.38-22.49,36.39l-7.81,6.51v.26h31.86v16.25Z"/><path class="cls-2" d="M736.29,1090.14v-12c4.37-4,6.56-5.92,10.92-9.88,10-9.08,27.11-21.47,27.69-35.88.27-6.6-4.16-12.35-13.91-12.35-7.28,0-13.65,3.65-18.07,7l-5.59-14.17c7.95-5.85,17.95-8.63,27.69-8.71,15.75-.12,29.52,10,29.64,26.53.11,14.63-12.28,27.38-22.49,36.39l-7.8,6.51v.26h31.85v16.25Z"/><path class="cls-2" d="M533.07,67.1h-.27l-16.45,7.68c-1.33-5.93-2-8.9-3.32-14.84l22.82-10.41h16.72v84.61h-19.5v-67Z"/><path class="cls-2" d="M599.55,77.39c.05,7.23,4,13.53,12.2,13.53,5.45,0,9.29-2.6,11.15-5.59a9.62,9.62,0,0,0,1.06-5c.11-7.78-3.25-17.78-12.6-17.83-6.87,0-11.88,6-11.81,14.84Zm-12.21,42.43a48.52,48.52,0,0,0,8.76,0c6.1-.39,12.35-2.08,17-5.21A26.25,26.25,0,0,0,624,99l-.4-.13c-3.84,3.91-9.43,6.11-17.24,6.12C592,105,579,93.21,579.38,78.56c.46-17.2,15.59-30.38,32.51-30.46,20.58-.1,33.33,17.63,32.64,36.45C644,99,640.71,113.22,629.4,123.46c-8.73,7.92-21.32,11.24-32.9,11.85a89.52,89.52,0,0,1-9.16,0V119.82Z"/><path class="cls-2" d="M654.62,134.14v-12l11.14-9.89c10.12-9,27.66-21.44,28.27-35.93.27-6.6-4.25-12.36-14.2-12.36-7.43,0-13.93,3.64-18.44,7-2.29-5.68-3.43-8.51-5.71-14.19,8.14-5.88,18.34-8.64,28.26-8.72,15.82-.12,30.14,9.79,30.25,26.55.11,15-12.78,27.06-23,36.45l-8,6.51v.26h32.51v16.27Z"/><path class="cls-2" d="M728.27,134.14v-12l11.14-9.89c10.12-9,27.66-21.44,28.26-35.93C768,69.74,763.43,64,753.47,64c-7.42,0-13.93,3.64-18.44,7l-5.7-14.19c8.14-5.88,18.34-8.64,28.26-8.72,15.81-.12,30.13,9.79,30.25,26.55.11,15-12.78,27.06-23,36.45l-8,6.51v.26h32.51v16.27Z"/><path class="cls-3" d="M133.18,574.11c0-217.9,141.56-403.64,340.47-476.35v12.17C281,182.08,144.6,362.8,144.6,574.11s136.43,392,329,464.17v12.17C274.74,977.75,133.18,792,133.18,574.11Zm695.91,469.32c189.3-77.14,322.29-258.13,322.29-469.32s-133-392.19-322.29-469.32v12.34c183,76.46,310.86,252.38,310.86,457s-127.9,380.51-310.86,457v12.35Z"/><g id="Logo_100_-_hrana-2" data-name="Logo 100 - hrana"><circle class="cls-4" cx="643.38" cy="570.15" r="399.45"/><circle class="cls-5" cx="643.38" cy="570.15" r="258.31"/><path class="cls-6" d="M799.55,415.05a218.5,218.5,0,1,0,64,154.51A217,217,0,0,0,799.55,415.05Z"/><path class="cls-7" d="M803.36,560.57q-3.79-1.53-7.86-2.82c-14.07-4.43-29.77-6.48-46.26-6.27,7,59.36-7.91,119.3-41.64,166-13.91,19.27-30.37,35.1-48,46.58a194.55,194.55,0,0,0,36.34-6.53c42-22.63,67.06-59,80.94-86.66C794.3,636.16,803.83,596.32,803.36,560.57Z"/><path class="cls-7" d="M574.3,711.36c1.26-1.06,2.51-2.14,3.75-3.27a146.59,146.59,0,0,0,27.39-34.86C550.37,649.65,505.77,606.7,482.13,554c-9.54-21.25-15-43-16.24-63.63a193.81,193.81,0,0,0-10.93,31C451.94,607.6,510.72,677.58,574.3,711.36Z"/><path class="cls-7" d="M692.08,706.29c31.13-43.12,44.76-98.63,38-153.6a231.92,231.92,0,0,0-77.41,23.42C649.37,634.55,626,690.13,591,722.2c-11,10.09-22.75,17.42-34.82,21.87a193.16,193.16,0,0,0,60.37,18.81C644,755.59,671.07,735.4,692.08,706.29Z"/><path class="cls-7" d="M582.4,500.32c15.59,22.09,36.77,42.57,61.49,58.79,52.26-26.35,112.09-33.9,157.37-19.61,14.26,4.5,26.48,11,36.37,19.27a193.15,193.15,0,0,0-15.28-65C802.34,473.33,771,459.72,735,456,681.83,450.62,626.72,466.72,582.4,500.32Z"/><path class="cls-7" d="M572.13,484.08c47.93-35.83,107.38-52.94,164.76-47.08,23.07,2.35,44.51,8.45,63,17.63a196.41,196.41,0,0,0-26.41-29.08c-32.38-19.81-69.72-29.21-108.93-27.28-37.76,1.87-76.53,14.35-109.78,35.26a105.63,105.63,0,0,0,1.83,11.08A145.21,145.21,0,0,0,572.13,484.08Z"/><path class="cls-7" d="M679.59,379a194.55,194.55,0,0,0-118.94,15.1A61.6,61.6,0,0,0,555.24,411c33.5-18.8,71.35-30,108.35-31.82Q671.65,378.76,679.59,379Z"/><path class="cls-7" d="M614.18,656.14a231.27,231.27,0,0,0,19.38-80.91c-48.95-32.09-85.39-80.12-95.67-126.48-3.22-14.56-3.71-28.37-1.54-41a196.35,196.35,0,0,0-48.08,45.08c-7.28,27.34-3.33,60.77,11.32,93.39C521.45,594.88,562.93,634.56,614.18,656.14Z"/><path class="cls-7" d="M452.54,608.28a195,195,0,0,0,79.78,121.57,64.34,64.34,0,0,0,24-6.64C513.62,698.2,474.05,658.14,452.54,608.28Z"/><path class="cls-8" d="M822.36,571.1C821,606.93,811,645.54,794,679.48a245.59,245.59,0,0,1-23.46,37.88,194.28,194.28,0,0,0,66.77-130.78A62.93,62.93,0,0,0,822.36,571.1Z"/><path class="cls-9" d="M605.47,673.25a146.59,146.59,0,0,1-27.39,34.86c-1.24,1.13-2.49,2.21-3.75,3.26C510.75,677.6,452,607.62,455,521.44a193.7,193.7,0,0,1,10.93-31c1.25,20.67,6.7,42.38,16.23,63.63C505.8,606.72,550.4,649.67,605.47,673.25Z"/><path class="cls-9" d="M692.11,706.31c-21,29.11-48.12,49.29-75.55,56.59a193.16,193.16,0,0,1-60.37-18.81c12.07-4.45,23.81-11.78,34.82-21.87,35-32.07,58.39-87.65,61.71-146.09a231.69,231.69,0,0,1,77.41-23.42C736.87,607.68,723.24,663.19,692.11,706.31Z"/><path class="cls-9" d="M777.56,534.18c-41.27-5.91-90.08,3-133.65,25-24.71-16.22-45.9-36.71-61.48-58.79,44.32-33.6,99.43-49.7,152.55-44.28a178.68,178.68,0,0,1,27.19,4.87A257.63,257.63,0,0,1,777.56,534.18Z"/><path class="cls-9" d="M633.59,575.25a231.27,231.27,0,0,1-19.38,80.91c-51.25-21.59-92.73-61.26-114.59-110C485,513.58,481,480.15,488.29,452.81a196.2,196.2,0,0,1,48.09-45.08c-2.17,12.66-1.68,26.48,1.54,41C548.19,495.13,584.64,543.16,633.59,575.25Z"/><path class="cls-7" d="M803.39,560.59q-3.79-1.53-7.86-2.82a129.73,129.73,0,0,0-17.31-4.12q0,4.4-.12,8.89c-2.58,94.51-43.25,155-94.49,198q6.24-1.3,12.33-3c42-22.62,67.06-59,80.94-86.65C794.33,636.18,803.86,596.33,803.39,560.59Z"/><path class="cls-7" d="M777.56,534.18a150.23,150.23,0,0,1,23.73,5.34c14.26,4.5,26.48,11,36.37,19.27a193.21,193.21,0,0,0-15.28-65c-14.78-15.11-35.73-26.48-60.21-32.87A257.63,257.63,0,0,1,777.56,534.18Z"/><path class="cls-7" d="M799.9,454.64a196.89,196.89,0,0,0-26.41-29.07,186.21,186.21,0,0,0-38.76-18A257.08,257.08,0,0,1,753,439.3,177.85,177.85,0,0,1,799.9,454.64Z"/><path class="cls-7" d="M822.39,571.12C821.06,607,811,645.56,794,679.5a246.32,246.32,0,0,1-23.45,37.88A194.34,194.34,0,0,0,837.3,586.6,63.11,63.11,0,0,0,822.39,571.12Z"/><path class="cls-10" d="M567.82,458.18c.5,1.44,1,2.87,1.58,4.29.28.71.55,1.41.85,2.11s.57,1.4.88,2.09q.92,2.08,1.91,4.11c.67,1.36,1.37,2.66,2.1,4-.17-1.48-.32-3-.41-4.42s-.16-2.94-.18-4.4c0-.73,0-1.47,0-2.2s0-1.46,0-2.18c0-1.46.09-2.91.18-4.36.17-2.89.44-5.77.8-8.61.17-1.32.36-2.64.57-3.94l1.19-.75,4-2.37,4-2.3,4-2.25,4.08-2.18,4.11-2.11,4.15-2.05,4.18-2q4.22-1.93,8.48-3.75c2.84-1.2,5.71-2.37,8.6-3.48s5.79-2.17,8.72-3.17,5.88-2,8.85-2.85c1.48-.46,3-.89,4.46-1.3s3-.83,4.49-1.21,3-.76,4.52-1.11,3-.7,4.54-1,3-.63,4.57-.9,3.06-.56,4.59-.79,3.07-.48,4.62-.67,3.08-.4,4.63-.54,3.09-.31,4.65-.41l2.33-.16,2.33-.1c1.56-.08,3.12-.1,4.67-.1s3.12,0,4.68.06c3.13.08,6.25.32,9.36.66,1.56.15,3.1.43,4.66.63s3.08.57,4.63.85c-1.51-.42-3-.88-4.54-1.28s-3.06-.77-4.61-1.06c-3.09-.64-6.22-1.17-9.36-1.55-1.57-.19-3.14-.39-4.72-.5s-3.17-.27-4.75-.33l-2.38-.13-2.38-.05c-1.59-.05-3.18-.05-4.77,0s-3.18.05-4.76.12-3.18.14-4.77.24-3.18.23-4.76.37-3.17.3-4.75.49-3.17.38-4.74.6-3.16.44-4.73.71-3.15.51-4.72.8-3.14.58-4.7.91c-3.13.62-6.24,1.33-9.34,2.08s-6.19,1.57-9.27,2.43-6.14,1.78-9.19,2.75-6.08,2-9.1,3.06l-4.51,1.64-4.49,1.72-4.47,1.79-4.43,1.87-4.41,1.94-4.39,2L570.79,432l-4.33,2.17-3.37,1.7-.15,4.38h0c.59,3.15,1.32,6.17,2.14,9.16S566.81,455.3,567.82,458.18Z"/><path class="cls-10" d="M695,465.14c-1.85.22-3.7.41-5.54.66l-5.54.8-5.51.94L673,468.61l-5.47,1.2L662,471.14q-5.43,1.41-10.8,3.05c-3.58,1.11-7.15,2.29-10.68,3.57a216.6,216.6,0,0,0-20.86,8.76c-3.41,1.65-6.78,3.42-10.11,5.28-1.67.92-3.3,1.93-5,2.89s-3.24,2.05-4.87,3.07L594,501.4l3.81,6.47h0c1.74,2.14,3.5,4.24,5.3,6.31.92,1,1.82,2.06,2.75,3.07s1.85,2,2.81,3,1.88,2,2.87,2.93,1.92,1.93,2.93,2.86q3,2.82,6,5.48t6.26,5.16c1.07.82,2.12,1.66,3.21,2.45s2.15,1.61,3.25,2.38,2.18,1.55,3.3,2.29,2.2,1.5,3.34,2.21c2.24,1.46,4.5,2.84,6.77,4.21l-2.82-2.81L641,544.57c-.92-.94-1.8-1.94-2.69-2.9s-1.75-2-2.62-2.95-1.71-2-2.55-3-1.65-2-2.47-3.05q-2.43-3.06-4.7-6.23T621.65,520c-.72-1.07-1.38-2.18-2.06-3.27s-1.32-2.21-2-3.31-1.26-2.24-1.9-3.35-1.21-2.26-1.82-3.38c-.1-.19-.19-.39-.29-.58,1.12-.8,2.23-1.61,3.38-2.37,2.91-2,5.89-3.88,8.93-5.69a203.17,203.17,0,0,1,18.91-9.91c3.24-1.5,6.53-2.91,9.85-4.26s6.69-2.6,10.08-3.79l5.11-1.73,5.15-1.6,5.2-1.48,5.23-1.36,5.27-1.22c1.76-.4,3.53-.73,5.3-1.1,3.55-.68,7.11-1.29,10.69-1.79s7.18-.92,10.79-1.21,7.22-.51,10.85-.58,7.25,0,10.88.14,7.25.47,10.87.92,7.2,1.06,10.78,1.82c1.79.37,3.55.86,5.33,1.28s3.51,1,5.27,1.56c-1.71-.67-3.41-1.37-5.13-2s-3.47-1.22-5.24-1.75c-3.52-1.06-7.09-2-10.7-2.76s-7.26-1.4-10.93-1.88-7.35-.85-11.05-1.08-7.41-.35-11.12-.36-7.43.1-11.14.3S698.74,464.75,695,465.14Z"/><path class="cls-10" d="M723.05,562.13l-3.83.35c-1.27.12-2.55.29-3.83.43s-2.56.34-3.84.52-2.56.39-3.84.61-2.55.45-3.83.7-2.55.52-3.82.81-2.55.58-3.82.9-2.53.66-3.8,1q-3.8,1-7.54,2.3c-1.26.4-2.49.85-3.74,1.28s-2.47.91-3.71,1.36c-4.92,1.86-9.77,3.91-14.54,6h0l-3.35,2.18L659.3,584l-.39,5c-.14,1.68-.33,3.36-.48,5-.36,3.35-.75,6.7-1.24,10-.23,1.68-.49,3.34-.77,5s-.54,3.34-.86,5c-.6,3.32-1.29,6.63-2,9.92s-1.58,6.57-2.47,9.83-1.87,6.5-2.91,9.71-2.18,6.41-3.38,9.58-2.5,6.3-3.86,9.41-2.82,6.18-4.36,9.21-3.14,6-4.85,9-3.48,5.86-5.35,8.71c-.94,1.43-1.87,2.86-2.86,4.25s-2,2.81-3,4.17L619,700l-1.58,2c-1,1.36-2.14,2.68-3.23,4-2.19,2.64-4.48,5.21-6.82,7.72s-4.79,4.95-7.28,7.33c-1.25,1.19-2.54,2.34-3.81,3.51l-3.91,3.41,4.21-3c1.37-1.06,2.76-2.09,4.12-3.17,2.71-2.16,5.38-4.38,8-6.7s5.14-4.69,7.59-7.17c1.24-1.23,2.46-2.47,3.64-3.75l1.8-1.91,1.74-2c1.17-1.29,2.31-2.62,3.43-4s2.22-2.7,3.31-4.07q3.27-4.12,6.29-8.43t5.83-8.78q2.79-4.49,5.35-9.1t4.88-9.38q2.32-4.77,4.42-9.63c1.38-3.25,2.71-6.53,4-9.84s2.41-6.65,3.5-10,2.13-6.76,3.07-10.17c.49-1.7.94-3.42,1.38-5.13s.88-3.44,1.27-5.16c.83-3.45,1.56-6.92,2.25-10.39.33-1.74.68-3.48,1-5.23l.34-2c3-2.26,6-4.46,9-6.57,1-.7,2.05-1.43,3.1-2.1s2.07-1.38,3.13-2c2.11-1.34,4.24-2.63,6.42-3.86,1.09-.61,2.18-1.23,3.29-1.81s2.22-1.18,3.35-1.73,2.25-1.13,3.4-1.65,2.28-1.08,3.45-1.57,2.32-1,3.5-1.49,2.35-1,3.54-1.41,2.38-.91,3.59-1.34Z"/><path class="cls-10" d="M793.36,565.73c-1.25-.46-2.53-.86-3.82-1.24-2.58-.76-5.2-1.4-7.83-2-5.26-1.15-10.58-2-15.9-2.8h0l-6.9.66.83,6.54.6,4.72c.12,1.59.27,3.18.37,4.78s.14,3.22.18,4.83v4.87l-.19,4.89-.34,4.91-.49,4.91c-.18,1.63-.42,3.27-.62,4.91-.47,3.27-1,6.55-1.6,9.81-.28,1.64-.63,3.27-1,4.9s-.68,3.26-1.07,4.88c-.72,3.26-1.54,6.49-2.39,9.73s-1.79,6.45-2.74,9.66L749,649.53l-1.56,4.78c-1.08,3.18-2.18,6.35-3.36,9.5s-2.36,6.3-3.63,9.42q-.93,2.34-1.92,4.67c-.65,1.55-1.31,3.1-2,4.64s-1.36,3.08-2.07,4.61-1.41,3.06-2.14,4.58q-2.17,4.56-4.54,9t-4.93,8.85q-2.57,4.36-5.45,8.55,3.21-3.95,6.14-8.11t5.65-8.47c1.81-2.88,3.58-5.78,5.28-8.72.86-1.47,1.71-2.94,2.53-4.43s1.65-3,2.45-4.48,1.61-3,2.39-4.51,1.56-3,2.31-4.55c1.53-3,3-6.12,4.44-9.22s2.81-6.21,4.16-9.35l2-4.72,1.91-4.76c1.23-3.19,2.44-6.4,3.57-9.63s2.25-6.48,3.26-9.77c.52-1.63,1-3.28,1.49-4.93s1-3.31,1.4-5c.91-3.33,1.72-6.69,2.48-10.07.36-1.69.74-3.39,1.07-5.09l.93-5.14.78-5.18.62-5.23.43-5.27c.11-1.77.16-3.54.24-5.32s0-3.47,0-5.22c2.89-.73,5.8-1.41,8.72-2,2.53-.51,5.07-1,7.64-1.29,1.28-.17,2.57-.31,3.87-.39.65-.06,1.29-.08,1.94-.11s1.32,0,2,0C795.86,566.68,794.63,566.17,793.36,565.73Z"/><path class="cls-10" d="M605.74,642l2.23,1-1.83-1.62c-1.22-1-3-2.59-5.23-4.47s-4.93-4.29-8-7c-1.52-1.38-3.23-2.7-4.88-4.29l-5.27-4.87-2.82-2.56-2.82-2.78-5.94-5.77-6-6.32-1.55-1.62c-.52-.54-1.07-1.06-1.55-1.64l-3-3.45c-1-1.15-2-2.33-3.08-3.48l-1.57-1.75c-.49-.61-1-1.22-1.48-1.84q-3-3.71-6-7.42c-2-2.55-3.8-5.22-5.78-7.8s-3.76-5.32-5.57-8c-3.81-5.31-6.92-11.05-10.33-16.51-2.92-5.72-6.21-11.16-8.67-16.8l-2-4.13c-.33-.68-.65-1.36-1-2l-.49-1-.42-1c-1.15-2.74-2.23-5.43-3.35-8l-1.65-3.87c-.47-1.29-.93-2.57-1.38-3.83q-1.39-3.76-2.69-7.28c-1-2.32-1.58-4.6-2.29-6.75s-1.35-4.21-2-6.14c-1.38-3.83-2.23-7.36-3.08-10.19s-1.53-5.08-2-6.61l-.74-2.33s0,.86,0,2.45,0,3.93.15,6.89a100.28,100.28,0,0,0,.73,10.69c.23,2.07.53,4.27.81,6.61s.59,4.81,1.15,7.3,1.07,5.14,1.63,7.86l.91,4.14q.58,2.07,1.2,4.2c.8,2.84,1.71,5.74,2.59,8.73.4,1.51,1,3,1.58,4.44l1.72,4.49,1.76,4.57a22.9,22.9,0,0,0,1,2.27c.35.75.7,1.51,1.06,2.26,1.4,3,2.85,6.08,4.34,9.14,3.34,5.94,6.63,12,10.6,17.73,1.94,2.87,3.83,5.78,6,8.47s4.2,5.45,6.36,8.08,4.49,5.08,6.73,7.54l1.68,1.84c.58.59,1.17,1.17,1.75,1.75,1.16,1.16,2.34,2.28,3.5,3.41l3.45,3.34c1.14,1.11,2.37,2.09,3.54,3.11,2.37,2,4.66,4,6.93,5.88l6.88,5.15,3.29,2.42,3.28,2.17,6.17,4c1,.64,2,1.21,2.93,1.75L590,634c3.63,2,6.76,3.82,9.49,5.05S604.3,641.34,605.74,642Z"/><path class="cls-10" d="M570.1,698.07c-.74-.73-1.6-1.56-2.57-2.48-1.91-1.85-4.24-4.09-6.86-6.7s-5.54-5.55-8.69-8.78-6.5-6.78-10-10.59-7.1-7.83-10.75-12.07q-2.74-3.18-5.52-6.49c-.94-1.08-1.82-2.23-2.75-3.35s-1.87-2.23-2.77-3.38c-3.68-4.57-7.31-9.27-10.84-14.05-1.76-2.39-3.54-4.77-5.21-7.21s-3.38-4.83-5-7.24c-3.21-4.88-6.38-9.68-9.24-14.46-1.5-2.35-2.78-4.76-4.19-7s-2.59-4.63-3.84-6.87c-2.42-4.5-4.68-8.81-6.61-12.85-1-2-1.94-4-2.77-5.84s-1.7-3.63-2.41-5.32l-2-4.74-1.67-4.06c-1-2.45-1.76-4.45-2.3-5.78l-.84-2,.11,2.21c.05.72.11,1.6.17,2.65,0,.52.07,1.08.11,1.68s.15,1.23.23,1.9c.17,1.34.36,2.83.57,4.46s.57,3.34.9,5.2.8,3.81,1.26,5.89,1.06,4.21,1.68,6.46c1.25,4.49,2.87,9.28,4.77,14.28.45,1.26,1,2.49,1.52,3.76s1.05,2.56,1.63,3.84c1.15,2.56,2.33,5.18,3.66,7.77.66,1.3,1.3,2.63,2,3.94l2.15,3.93c1.42,2.64,3,5.24,4.58,7.86,3.21,5.21,6.72,10.35,10.38,15.37s7.57,9.86,11.63,14.42c2,2.32,4,4.55,6.1,6.72s4.1,4.3,6.2,6.3,4.16,4,6.22,5.87,4.1,3.7,6.17,5.38c4.06,3.43,8.07,6.47,11.8,9.21s7.3,5.06,10.51,7,6,3.6,8.43,4.87,4.3,2.18,5.61,2.8l2,.92L572,699.89Z"/><path class="cls-7" d="M1018.34,411.75a408.18,408.18,0,1,0,32,158.4A405.46,405.46,0,0,0,1018.34,411.75Zm-13.81,311a393.23,393.23,0,1,1,30.8-152.56A390.66,390.66,0,0,1,1004.53,722.71Z"/><path class="cls-7" d="M909.19,570.15a265.83,265.83,0,1,0-77.86,188A264,264,0,0,0,909.19,570.15ZM643.38,821A250.81,250.81,0,1,1,820.73,747.5,249.16,249.16,0,0,1,643.38,821Z"/><polygon class="cls-6" points="330.85 423.57 376.63 446.39 383.81 431.98 338.03 409.16 345.22 394.75 332.37 388.35 310.82 431.57 323.67 437.98 330.85 423.57"/><path class="cls-6" d="M389.67,395.92c-2.1,2.91-4.11,3.5-6.94,4l2.33,14.71c7.45-1.21,11.79-4.09,16.25-10.29,7.21-10,8.36-24.36-4.26-33.45L362.11,345.7l-9.4,13.06,34.64,24.94C392.42,387.36,392.57,391.88,389.67,395.92Z"/><path class="cls-6" d="M412.88,338.71c4.21.32,8.8-1.16,13.69-4.38l6.65-4.42a7.3,7.3,0,0,1,4.4-1.56,5.45,5.45,0,0,1,3.52,2c2.5,2.82,1.63,6.42-3.12,10.63-3.92,3.47-9.19,6.54-14,6.25l-.88,14.55c9.48.7,16.82-3.35,24.33-10,10.33-9.15,14.12-22.22,5.27-32.2-4-4.55-8.29-7.28-13.16-7.51-3.9-.24-8.29,1.19-13.24,4.48L419.68,321a7.33,7.33,0,0,1-4.65,1.54,4.33,4.33,0,0,1-3-1.42c-1.89-2.13-2.3-6.07,1.9-9.79,2.13-1.89,6-5.7,11.85-5.34l.87-14.29c-7.92-.48-14.69,2.57-21.71,8.79-11.16,9.88-12.11,22.4-4.18,31.36C404.5,336.06,408.53,338.39,412.88,338.71Z"/><path class="cls-6" d="M472.41,322.09c6.57,1.62,12.62,1,19.47-3.17s10.24-9.19,11.86-15.76c2.34-9.48-2.65-17.21-7.74-25.63s-9.62-16.44-19.09-18.78c-6.57-1.62-12.62-1-19.47,3.17s-10.25,9.2-11.87,15.77c-2.33,9.47,2.66,17.2,7.75,25.62S462.93,319.76,472.41,322.09ZM460.82,280a8.7,8.7,0,0,1,11-6.66c2.26.89,4.19,2.31,10.38,12.54s6.49,12.53,6.23,14.94a8.51,8.51,0,0,1-11,6.66c-2.26-.89-4.14-2.23-10.33-12.46S460.56,282.39,460.82,280Z"/><polygon class="cls-6" points="535.08 296.74 528.08 277.46 531.1 269.61 554.45 289.7 572.09 283.3 537.07 254.52 549.03 221.98 530.53 228.7 520.63 256.96 512.71 235.17 497.75 240.61 520.12 302.18 535.08 296.74"/><path class="cls-6" d="M579.08,275.79c5.46,4,11.3,5.7,19.21,4.48s13-4.61,17-10.07c5.77-7.87,4.09-16.92,2.59-26.65s-2.63-18.86-10.5-24.63c-5.46-4-11.31-5.7-19.22-4.48s-13,4.61-17,10.06c-5.77,7.87-4.09,16.92-2.59,26.65S571.21,270,579.08,275.79Zm5.32-43.37a8.69,8.69,0,0,1,12.73-2c1.75,1.69,3,3.73,4.82,15.55s1.23,14.05.07,16.18a8.52,8.52,0,0,1-12.73,2c-1.75-1.69-3-3.64-4.8-15.46S583.24,234.56,584.4,232.42Z"/><polygon class="cls-6" points="674.77 262.59 647.27 261.92 648.52 210.78 632.42 210.38 630.83 275.87 674.42 276.94 674.77 262.59"/><path class="cls-6" d="M719.81,272c-5.07-1.33-10.55-4-13-8.16l-12.58,7.35c4.68,8.27,12.13,12.12,21.83,14.67,13.35,3.5,26.32-.61,29.7-13.51,1.54-5.88,1.45-10.94-1.07-15.12-2-3.37-5.6-6.23-11.08-8.52l-7.38-3.08a7.38,7.38,0,0,1-3.87-3,4.31,4.31,0,0,1-.47-3.26c.72-2.76,3.76-5.29,9.19-3.87,2.76.72,8.08,1.83,11,6.89l12.35-7.22c-4-6.85-10.29-10.79-19.37-13.17-14.42-3.78-25.36,2.39-28.39,13.95-1.43,5.43-1.12,10.08,1,13.87s5.86,6.68,11.26,9l7.37,3.07a7.33,7.33,0,0,1,3.74,2.79,5.48,5.48,0,0,1,.26,4.07C729.43,272.38,726,273.65,719.81,272Z"/><polygon class="cls-6" points="819.31 255.5 804.12 248.47 778.89 277.13 784.25 239.27 769.14 232.27 761.24 300.8 772.09 305.82 819.31 255.5"/><rect class="cls-6" x="785.99" y="286.49" width="65.5" height="16.1" transform="translate(130.26 826.6) rotate(-57.48)"/><polygon class="cls-6" points="828.99 342.1 850.61 317.25 844.82 355.87 855.45 365.1 898.43 315.67 886.28 305.11 864.67 329.96 870.46 291.34 859.83 282.1 816.84 331.53 828.99 342.1"/><path class="cls-6" d="M870.29,372c-.86,6.71.48,12.66,5.37,19s10.3,9.13,17,10c9.68,1.25,16.79-4.59,24.59-10.61s15.24-11.42,16.48-21.1c.86-6.71-.47-12.65-5.36-19s-10.31-9.13-17-10c-9.68-1.24-16.79,4.6-24.58,10.62S871.54,362.34,870.29,372Zm26.33-8.35c9.47-7.31,11.78-7.93,14.2-8a8.69,8.69,0,0,1,7.88,10.2c-.63,2.34-1.82,4.42-11.28,11.73s-11.71,7.87-14.14,7.89a8.53,8.53,0,0,1-7.87-10.2C886,373,887.15,371,896.62,363.66Z"/><polygon class="cls-6" points="907.65 441.31 975.83 430.69 968.18 415.8 930.65 422.87 958.18 396.32 950.57 381.51 902.18 430.67 907.65 441.31"/><path class="cls-7" d="M322.1,570.15a322.43,322.43,0,0,1,9.9-79.46L317.46,487a338.9,338.9,0,0,0,0,166.31L332,649.61A323,323,0,0,1,322.1,570.15Z"/><path class="cls-7" d="M954.55,489.85a323.89,323.89,0,0,1,.21,159.76l14.54,3.7a338.85,338.85,0,0,0-.23-167.2Z"/><text class="cls-11" transform="translate(323.02 701.36) rotate(64.91)">1</text><text class="cls-11" transform="translate(338.11 733.33) rotate(59.09)">0</text><text class="cls-11" transform="translate(356.39 763.65) rotate(53.26)">0</text><text class="cls-11" transform="translate(377.47 791.2) rotate(49.28)"> </text><text class="cls-11" transform="translate(386.07 801.58) rotate(45.52)">L</text><text class="cls-11" transform="translate(408.98 824.82) rotate(39.98)">E</text><text class="cls-11" transform="matrix(0.83, 0.56, -0.56, 0.83, 435.42, 846.86)">T</text><text class="cls-11" transform="matrix(0.86, 0.5, -0.5, 0.86, 464.01, 865.79)"> </text><text class="cls-11" transform="translate(475.67 873.19) rotate(25.46)">H</text><text class="cls-11" transform="translate(515.39 891.85) rotate(18.38)">Á</text><text class="cls-11" transform="translate(555.37 904.83) rotate(11.91)">Z</text><text class="cls-11" transform="translate(591.32 912.24) rotate(6.06)">E</text><text class="cls-11" transform="matrix(1, -0.01, 0.01, 1, 625.5, 916.01)">N</text><text class="cls-11" transform="matrix(0.99, -0.12, 0.12, 0.99, 669.22, 915.28)">É</text><text class="cls-11" transform="matrix(0.98, -0.19, 0.19, 0.98, 702.33, 910.86)"> </text><text class="cls-11" transform="matrix(0.97, -0.26, 0.26, 0.97, 713.56, 909.2)">V</text><text class="cls-11" transform="translate(752.52 898.55) rotate(-21.06)">E</text><text class="cls-11" transform="translate(783.54 886.19) rotate(-24.93)"> </text><text class="cls-11" transform="translate(795.91 880.77) rotate(-28.82)">S</text><text class="cls-11" transform="translate(826.27 864.11) rotate(-34.99)">V</text><text class="cls-11" transform="translate(858.61 840.84) rotate(-39.83)">I</text><text class="cls-11" transform="matrix(0.71, -0.71, 0.71, 0.71, 873.46, 829.05)">N</text><text class="cls-11" transform="matrix(0.61, -0.79, 0.79, 0.61, 904.59, 797.79)">O</text><text class="cls-11" transform="matrix(0.51, -0.86, 0.86, 0.51, 931.87, 761.86)">V</text><text class="cls-11" transform="translate(952.1 726.89) rotate(-65.76)">Ě</text></g></g></svg>